<svg width="144" height="144" viewBox="0 0 144 144" fill="none" xmlns="http://www.w3.org/2000/svg">
<g clip-path="url(#clip0_295_8631)">
<path d="M144 72C144 78.6948 143.086 85.1769 141.379 91.324C139.768 97.1181 137.45 102.618 134.526 107.724C133.761 109.059 132.955 110.367 132.109 111.648C129.393 115.759 126.265 119.575 122.784 123.037L122.775 123.046C121.118 124.694 119.384 126.26 117.578 127.74C115.664 129.307 113.667 130.778 111.594 132.145C100.712 139.329 87.7616 143.629 73.8242 143.973C73.7156 143.982 73.6024 143.982 73.4893 143.982H73.4847C73.3761 143.986 73.2629 143.991 73.1498 143.986C72.7695 143.995 72.3848 144 72 144C71.6152 144 71.2214 143.995 70.8367 143.991H70.7416C70.3206 143.982 69.9042 143.973 69.4832 143.955C55.2335 143.466 42.0385 138.84 31.057 131.23C31.0343 131.217 31.0117 131.199 30.9891 131.185C30.4504 130.81 29.9117 130.429 29.3821 130.035C27.1279 128.379 24.9732 126.591 22.9272 124.685C22.8955 124.653 22.8638 124.626 22.8321 124.594C18.6994 120.733 15.0238 116.388 11.8914 111.653C11.6831 111.336 11.4794 111.024 11.2757 110.702C8.27461 106.004 5.80762 100.934 3.95172 95.579C1.38966 88.1916 0 80.261 0 72C0 32.2384 32.2384 0 72 0C111.762 0 144 32.2384 144 72Z" fill="#BF9D7D"/>
<path d="M144 72C144 78.6948 143.086 85.1769 141.379 91.324C139.768 97.1181 137.45 102.618 134.526 107.724C133.761 109.059 132.955 110.367 132.109 111.648C129.393 115.759 126.265 119.575 122.784 123.037L122.775 123.046C121.118 124.694 119.384 126.26 117.578 127.74C115.664 129.307 113.667 130.778 111.594 132.145C100.712 139.329 87.7616 143.629 73.8242 143.973C73.7156 143.982 73.6024 143.982 73.4893 143.982H73.4847C73.3761 143.986 73.2629 143.991 73.1498 143.986C72.7695 143.995 72.3848 144 72 144C71.6152 144 71.2214 143.995 70.8367 143.991H70.7416C70.3206 143.982 69.9042 143.973 69.4832 143.955C55.2335 143.466 42.0385 138.84 31.057 131.23C31.0343 131.217 31.0117 131.199 30.9891 131.185C30.4504 130.81 29.9117 130.429 29.3821 130.035C27.1279 128.379 24.9732 126.591 22.9272 124.685C22.8955 124.653 22.8638 124.626 22.8321 124.594C18.6994 120.733 15.0238 116.388 11.8914 111.653C11.6831 111.336 11.4794 111.024 11.2757 110.702C8.27461 106.004 5.80762 100.934 3.95172 95.579C1.38966 88.1916 0 80.261 0 72C0 32.2384 32.2384 0 72 0C111.762 0 144 32.2384 144 72Z" fill="black" fill-opacity="0.2"/>
<path d="M118.352 39.4538C117.619 38.3719 116.84 37.3535 116.103 36.4391C111.119 30.2467 105.696 24.3757 99.8159 19.1973C101.758 20.9083 107.882 35.1988 108.462 39.3995C109.254 45.1347 79.2199 53.6492 78.6813 56.5191C83.3799 58.8005 87.5172 62.6481 90.4097 67.3105C91.3331 68.7997 92.1343 70.3704 92.7816 72.0045C100.486 65.527 108.57 59.5609 116.99 54.1381C119.851 52.2957 122.204 50.544 121.58 46.6149C121.186 44.1615 119.869 41.6764 118.361 39.4583L118.352 39.4538Z" fill="#7A5AF8"/>
<path d="M29.2825 39.4538C30.0158 38.3719 30.7944 37.3535 31.5322 36.4391C36.516 30.2467 41.9389 24.3757 47.8189 19.1973C45.877 20.9083 39.7525 35.1988 39.1731 39.3995C38.381 45.1347 68.4149 53.6492 68.9536 56.5191C64.255 58.8005 60.1177 62.6481 57.2252 67.3105C56.3017 68.7997 55.5005 70.3704 54.8532 72.0045C47.149 65.527 39.0645 59.5609 30.645 54.1381C27.7842 52.2957 25.4304 50.544 26.055 46.6149C26.4489 44.1615 27.7661 41.6764 29.2735 39.4583L29.2825 39.4538Z" fill="#6938EF"/>
<path d="M141.379 91.324C139.768 97.1181 137.45 102.618 134.526 107.724C133.761 109.059 132.955 110.367 132.109 111.648C126.31 113.292 121.544 119.801 117.578 127.74C115.664 129.307 113.667 130.778 111.594 132.145C100.712 139.329 87.7616 143.629 73.8242 143.973L78.1833 55.6771C79.3467 54.9393 80.5915 54.2829 81.8997 53.6945C91.3738 49.4395 104.238 49.014 114.075 51.3768C111.562 52.0106 106.212 54.1064 104.352 57.1618C126.469 57.4877 138.31 72.7922 142.941 82.2482C140.257 81.9042 137.572 81.5647 134.892 81.2207C136.581 82.6692 139.007 85.8378 141.379 91.324Z" fill="#9B8AFB"/>
<path d="M68.7906 55.6771L73.1498 143.986C72.7695 143.995 72.3848 144 72 144C71.6152 144 71.2214 143.995 70.8367 143.991H70.7416C70.3206 143.982 69.9042 143.973 69.4832 143.955C55.2335 143.466 42.0385 138.84 31.057 131.23C26.4444 121.032 20.6684 112.255 13.2991 111.327C12.8465 111.395 12.3757 111.508 11.8914 111.653C11.6831 111.336 11.4794 111.024 11.2757 110.702C8.27462 106.004 5.80762 100.934 3.95172 95.579C6.78537 87.4266 10.0038 83.0087 12.086 81.2207C9.40174 81.5647 6.722 81.9042 4.03773 82.2482C8.66843 72.7922 20.5055 57.4877 42.6269 57.1618C40.7665 54.1064 35.4161 52.0106 32.8993 51.3768C42.7401 49.014 55.6047 49.4395 65.0743 53.6945C66.3825 54.2829 67.6273 54.9393 68.7906 55.6771Z" fill="#5925DC"/>
<path d="M73.4847 56.1977V143.982C73.3761 143.986 73.2629 143.991 73.1498 143.986C72.7695 143.995 72.3848 144 72 144C71.6152 144 71.2214 143.995 70.8367 143.991H70.7416C70.3206 143.982 69.9042 143.973 69.4832 143.955C55.2335 143.466 42.0385 138.84 31.057 131.23C31.0343 131.217 31.0117 131.199 30.9891 131.185C30.4504 130.81 29.9117 130.429 29.3821 130.035C27.1279 128.379 24.9732 126.591 22.9272 124.685C23.4795 123.943 23.9864 123.304 24.4165 122.779L22.8321 124.595C18.6994 120.733 15.0238 116.388 11.8914 111.653C11.6832 111.336 11.4795 111.024 11.2758 110.702C17.4727 93.8272 28.3003 85.0819 28.6352 84.8103L15.9246 91.4417C26.5077 69.7277 46.1441 64.0468 46.1441 64.0468L32.6413 63.8205C45.7503 56.2248 62.1773 56.4512 62.1773 56.4512L52.6126 52.513C57.782 52.6126 61.9057 53.1015 65.0743 53.6945C70.4383 54.6948 73.0864 55.994 73.4847 56.1977Z" fill="#6938EF"/>
<path d="M134.526 107.724C133.761 109.059 132.955 110.367 132.109 111.648C129.393 115.759 126.265 119.575 122.784 123.037L122.558 122.779C122.63 122.865 122.698 122.951 122.775 123.046C121.118 124.694 119.384 126.26 117.578 127.74C115.664 129.307 113.667 130.778 111.594 132.145C100.712 139.329 87.7616 143.629 73.8242 143.973C73.7156 143.982 73.6024 143.982 73.4893 143.982V56.1977C73.8876 55.994 76.5356 54.6948 81.8997 53.6945C85.0683 53.1015 89.192 52.6126 94.3614 52.513L84.7967 56.4512C84.7967 56.4512 101.228 56.2248 114.337 63.8205L100.834 64.0468C100.834 64.0468 120.471 69.7277 131.049 91.4417L118.343 84.8103C118.638 85.0502 128.225 92.7816 134.526 107.724Z" fill="#7A5AF8"/>
<path d="M73.4847 123.974C88.2245 123.974 100.173 112.025 100.173 97.2856C100.173 82.5457 88.2245 70.5968 73.4847 70.5968C58.7449 70.5968 46.7959 82.5457 46.7959 97.2856C46.7959 112.025 58.7449 123.974 73.4847 123.974Z" fill="white"/>
<path d="M73.4847 113.79C82.5996 113.79 89.9887 106.4 89.9887 97.2855C89.9887 88.1707 82.5996 80.7816 73.4847 80.7816C64.3698 80.7816 56.9808 88.1707 56.9808 97.2855C56.9808 106.4 64.3698 113.79 73.4847 113.79Z" fill="#FEB173"/>
<path d="M73.4847 106.434C78.5372 106.434 82.633 102.338 82.633 97.2856C82.633 92.2331 78.5372 88.1373 73.4847 88.1373C68.4323 88.1373 64.3365 92.2331 64.3365 97.2856C64.3365 102.338 68.4323 106.434 73.4847 106.434Z" fill="#263238"/>
<path d="M92.5281 77.3006C80.9853 66.7672 63.0917 67.5866 52.5628 79.1248C48.3033 83.7918 45.8997 89.4998 45.3112 95.3346C66.1109 88.8389 85.53 91.5911 101.663 96.1267C101.151 89.1648 98.0913 82.3749 92.5281 77.3006Z" fill="#5925DC"/>
</g>
<defs>
<clipPath id="clip0_295_8631">
<rect width="144" height="144" fill="white"/>
</clipPath>
</defs>
</svg>
