<svg width="144" height="144" viewBox="0 0 144 144" fill="none" xmlns="http://www.w3.org/2000/svg">
<g clip-path="url(#clip0_295_8610)">
<path d="M144 72C144 85.6069 140.225 98.3312 133.661 109.186C128.07 118.452 120.443 126.346 111.403 132.272C110.855 132.629 110.298 132.982 109.742 133.326C108.556 134.06 107.342 134.757 106.107 135.422C105.926 135.522 105.745 135.617 105.563 135.712C102.829 137.16 99.9911 138.432 97.0578 139.519H97.0532C90.5709 141.927 83.645 143.43 76.4294 143.864C75.2072 143.941 73.9714 143.982 72.7265 143.995C72.6405 143.995 72.55 143.995 72.464 143.995C72.3101 143.995 72.1562 143.995 72.0023 143.995H71.9344C71.6673 143.995 71.4047 143.995 71.1422 143.995C69.9426 143.982 68.7566 143.937 67.5751 143.864C60.3323 143.425 53.3793 141.918 46.8698 139.492C44.3439 138.55 41.8859 137.473 39.5094 136.264C38.9616 135.992 38.4229 135.712 37.8888 135.422C36.662 134.761 35.4534 134.064 34.2719 133.335C33.6789 132.969 33.095 132.598 32.511 132.217C23.5119 126.301 15.9115 118.42 10.3345 109.186C3.7753 98.3312 0 85.6069 0 72C0 32.2384 32.2349 0 72.0023 0C111.77 0 144 32.2384 144 72Z" fill="#BF9D7D"/>
<path d="M144 72C144 85.6069 140.225 98.3312 133.661 109.186C128.07 118.452 120.443 126.346 111.403 132.272C110.855 132.629 110.298 132.982 109.742 133.326C108.556 134.06 107.342 134.757 106.107 135.422C105.926 135.522 105.745 135.617 105.563 135.712C102.829 137.16 99.9911 138.432 97.0578 139.519H97.0532C90.5709 141.927 83.645 143.43 76.4294 143.864C75.2072 143.941 73.9714 143.982 72.7265 143.995C72.6405 143.995 72.55 143.995 72.464 143.995C72.3101 143.995 72.1562 143.995 72.0023 143.995H71.9344C71.6673 143.995 71.4047 143.995 71.1422 143.995C69.9426 143.982 68.7566 143.937 67.5751 143.864C60.3323 143.425 53.3793 141.918 46.8698 139.492C44.3439 138.55 41.8859 137.473 39.5094 136.264C38.9616 135.992 38.4229 135.712 37.8888 135.422C36.662 134.761 35.4534 134.064 34.2719 133.335C33.6789 132.969 33.095 132.598 32.511 132.217C23.5119 126.301 15.9115 118.42 10.3345 109.186C3.7753 98.3312 0 85.6069 0 72C0 32.2384 32.2349 0 72.0023 0C111.77 0 144 32.2384 144 72Z" fill="black" fill-opacity="0.2"/>
<path d="M83.0521 119.642V104.071H60.8122V119.642C60.8122 119.642 41.5147 122.164 32.511 132.217C33.095 132.598 33.6789 132.969 34.2719 133.335C35.4534 134.064 36.6621 134.761 37.8888 135.422C40.7678 136.975 43.769 138.337 46.8699 139.492C53.3793 141.918 60.3324 143.425 67.5751 143.864C68.7566 143.937 69.9426 143.982 71.1422 143.995C71.4048 143.995 71.6673 143.995 71.9344 143.995H72.0023C72.2422 143.995 72.4867 143.995 72.7266 143.995C73.9714 143.982 75.2072 143.941 76.4294 143.864C83.6451 143.43 90.571 141.927 97.0533 139.519H97.0578C100.186 138.36 103.205 136.988 106.107 135.422C107.343 134.757 108.556 134.06 109.742 133.326C110.298 132.982 110.855 132.629 111.403 132.272C102.422 122.173 83.0521 119.642 83.0521 119.642Z" fill="#FDDCAB"/>
<path d="M31.2481 70.0807C32.0493 79.2652 37.8571 79.8174 37.8571 79.8174L37.9431 61.4304C37.9431 61.4304 30.4378 60.8917 31.2481 70.0807Z" fill="#FDDCAB"/>
<path d="M72.0068 24.688C53.0443 24.688 37.676 40.0604 37.676 59.0177V79.0117C37.676 97.9736 53.0488 113.341 72.0068 113.341L72.0068 24.688Z" fill="#FDDCAB"/>
<path d="M112.603 69.8046C111.801 78.9891 105.994 79.5413 105.994 79.5413L105.908 61.1543C105.908 61.1543 113.413 60.6156 112.603 69.8046Z" fill="#FFEAD5"/>
<path d="M72.0068 24.688L72.0068 113.346C90.9693 113.346 106.338 97.9736 106.338 79.0162V59.0223C106.338 40.0604 90.9647 24.6926 72.0068 24.6926V24.688Z" fill="#FFEAD5"/>
<path d="M111.403 132.272L105.563 135.712C102.829 137.16 99.9911 138.432 97.0577 139.519H97.0532C90.5709 141.927 83.645 143.43 76.4294 143.864C75.2072 143.941 73.9714 143.982 72.7265 143.995C72.6405 143.995 72.55 143.995 72.464 143.995V133.693H72.4776C72.6315 133.693 72.7718 133.679 72.9302 133.679C86.0216 133.408 88.3981 120.312 88.3981 120.312C88.7467 120.335 89.0862 120.367 89.4211 120.416C102.694 122.462 111.403 132.272 111.403 132.272Z" fill="#FEC84B"/>
<path d="M72.464 133.693V143.995C72.3101 143.995 72.1562 143.995 72.0023 143.995H71.9344C71.6673 143.995 71.4048 143.995 71.1422 143.995C69.9426 143.982 68.7566 143.937 67.5751 143.864C60.3324 143.425 53.3793 141.918 46.8699 139.492C44.3439 138.55 41.8859 137.473 39.5094 136.264L32.511 132.217C32.511 132.217 40.9579 122.345 55.5114 120.416C55.8509 120.371 56.1814 120.335 56.5344 120.312C56.5344 120.312 58.911 133.408 71.9978 133.679C72.1562 133.679 72.3011 133.693 72.455 133.693H72.464Z" fill="#FDB022"/>
<path d="M63.5554 64.9883H52.406C48.7937 64.9883 45.874 67.6907 45.874 71.0268C45.874 74.3629 48.7982 77.0653 52.406 77.0653H63.5554C67.1632 77.0653 70.0875 74.3584 70.0875 71.0268C70.0875 67.6952 67.1632 64.9883 63.5554 64.9883Z" fill="white"/>
<path d="M63.3562 72.1992H72.0068V69.8544H63.5101L63.3562 72.1992Z" fill="white"/>
<path d="M81.3409 77.0698H92.4903C96.1026 77.0698 99.0224 74.3674 99.0224 71.0313C99.0224 67.6952 96.0981 64.9928 92.4903 64.9928H81.3409C77.7331 64.9928 74.8088 67.6997 74.8088 71.0313C74.8088 74.3629 77.7331 77.0698 81.3409 77.0698Z" fill="white"/>
<path d="M80.6528 69.8589H72.0068V72.2037H80.4989L80.6528 69.8589Z" fill="white"/>
<path d="M98.538 15.9427C98.9681 13.9057 98.7055 9.62354 71.7352 11.2576V33.954C71.7352 33.954 101.078 43.9985 108.479 39.6484C108.479 39.6484 106.301 31.2425 102.635 26.0415C98.9681 20.8404 98.1125 17.9842 98.538 15.9472V15.9427Z" fill="#026E78"/>
<path d="M44.9324 15.9427C45.3625 17.9842 44.5024 20.8359 40.8357 26.037C37.1645 31.238 34.9917 39.6439 34.9917 39.6439C42.3929 43.994 71.7307 33.9495 71.7307 33.9495V11.2531C44.7649 9.62354 44.4978 13.9057 44.9279 15.9381L44.9324 15.9427Z" fill="#026E78"/>
<path d="M31.2119 45.4425C32.1806 47.6334 31.2617 49.9736 29.9217 51.8114C28.5773 53.6583 30.6505 56.8993 30.6505 56.8993L30.3156 57.7005C29.3695 59.5247 31.2164 60.7695 31.2164 60.7695C31.2164 60.7695 37.9884 57.103 45.9373 54.971C53.8908 52.8435 72.0475 51.2094 72.0475 51.2094V33.954C56.29 33.8273 43.0855 39.1732 37.0423 39.232C31.0036 39.2909 30.2477 43.2426 31.2164 45.4425H31.2119Z" fill="#015364"/>
<path d="M114.327 51.8114C112.983 49.9691 112.064 47.6334 113.033 45.4425C114.001 43.2426 113.25 39.2954 107.207 39.232C101.164 39.1732 87.6558 33.8273 71.8982 33.954V51.2094C71.8982 51.2094 90.3582 52.8435 98.3117 54.971C106.261 57.103 113.033 60.7695 113.033 60.7695C113.033 60.7695 114.88 59.5247 113.933 57.7005L113.598 56.8993C113.598 56.8993 115.667 53.6583 114.332 51.8114H114.327Z" fill="#015364"/>
<path d="M118.46 67.9985C114.178 68.3018 112.702 62.7024 112.702 62.7024C116.206 50.6707 76.778 49.4123 72.1788 49.3037V49.2946C72.1788 49.2946 72.0974 49.2946 71.957 49.2946C71.8167 49.2946 71.7352 49.2946 71.7352 49.2946V49.3037C67.1361 49.4078 27.7082 50.6662 31.2119 62.7024C31.2119 62.7024 29.7362 68.3063 25.4539 67.9985C21.1716 67.6952 40.125 73.4576 40.2789 62.7024C40.2789 62.7024 42.8727 68.5779 48.6806 69.8182C48.6806 69.8182 48.418 64.4859 53.3657 61.5843C53.3657 61.5843 58.7661 67.5413 56.4756 71.5157C56.4756 71.5157 70.083 71.1173 71.9616 62.8834C73.8356 71.1173 87.4475 71.5157 87.4475 71.5157C85.157 67.5413 90.5574 61.5843 90.5574 61.5843C95.5006 64.4859 95.2426 69.8182 95.2426 69.8182C101.05 68.5779 103.644 62.7024 103.644 62.7024C103.798 73.4621 122.747 67.6997 118.465 67.9985H118.46Z" fill="#1F1F24"/>
</g>
<defs>
<clipPath id="clip0_295_8610">
<rect width="144" height="144" fill="white"/>
</clipPath>
</defs>
</svg>
