<svg width="144" height="144" viewBox="0 0 144 144" fill="none" xmlns="http://www.w3.org/2000/svg">
<g clip-path="url(#clip0_295_8574)">
<path d="M144 72C144 85.6069 140.225 98.3312 133.661 109.186C130.021 115.22 125.517 120.674 120.321 125.378C117.052 128.338 113.512 131.004 109.742 133.326C108.556 134.06 107.342 134.757 106.107 135.422C103.205 136.988 100.186 138.36 97.0578 139.519H97.0532C90.5709 141.927 83.645 143.43 76.4294 143.864C74.9673 143.955 73.4916 144 72.0023 144H71.9344C70.4677 144 69.0146 143.955 67.5751 143.864C60.3323 143.425 53.3793 141.918 46.8698 139.492C43.769 138.337 40.7678 136.975 37.8888 135.422C36.662 134.761 35.4534 134.064 34.2719 133.335C30.4966 131.009 26.9522 128.343 23.6794 125.378C18.4872 120.674 13.9786 115.22 10.3345 109.186C3.7753 98.3312 0 85.6069 0 72C0 32.2384 32.2349 0 72.0023 0C111.77 0 144 32.2384 144 72Z" fill="#BF9D7D"/>
<path d="M144 72C144 85.6069 140.225 98.3312 133.661 109.186C130.021 115.22 125.517 120.674 120.321 125.378C117.052 128.338 113.512 131.004 109.742 133.326C108.556 134.06 107.342 134.757 106.107 135.422C103.205 136.988 100.186 138.36 97.0578 139.519H97.0532C90.5709 141.927 83.645 143.43 76.4294 143.864C74.9673 143.955 73.4916 144 72.0023 144H71.9344C70.4677 144 69.0146 143.955 67.5751 143.864C60.3323 143.425 53.3793 141.918 46.8698 139.492C43.769 138.337 40.7678 136.975 37.8888 135.422C36.662 134.761 35.4534 134.064 34.2719 133.335C30.4966 131.009 26.9522 128.343 23.6794 125.378C18.4872 120.674 13.9786 115.22 10.3345 109.186C3.7753 98.3312 0 85.6069 0 72C0 32.2384 32.2349 0 72.0023 0C111.77 0 144 32.2384 144 72Z" fill="black" fill-opacity="0.2"/>
<path d="M72.0656 29.5179V143.864H67.5751C60.3323 143.425 53.3792 141.918 46.8698 139.492C43.769 138.337 40.7677 136.975 37.8887 135.422C36.662 134.761 35.4534 134.064 34.2719 133.335C30.4966 131.009 26.9522 128.343 23.6793 125.378C24.3221 83.3889 28.8941 56.0619 38.6945 43.2788C57.8335 18.3101 71.3142 29.5179 71.3142 29.5179H72.0656Z" fill="black"/>
<path d="M120.321 125.378C117.052 128.338 113.512 131.004 109.742 133.326C108.556 134.06 107.342 134.757 106.107 135.422C103.205 136.988 100.186 138.36 97.0577 139.519H97.0532C90.5709 141.927 83.645 143.43 76.4294 143.864H71.9343V29.5179H72.6858C72.6858 29.5179 86.1664 18.3101 105.305 43.2788C115.106 56.0619 119.678 83.3889 120.321 125.378Z" fill="black"/>
<path d="M78.5977 109.928H65.271V123.237H78.5977V109.928Z" fill="#FDDCAB"/>
<path d="M72.1244 123.237V143.864H67.575C60.3323 143.425 53.3792 141.918 46.8698 139.492C43.7689 138.337 40.7677 136.975 37.8887 135.422C36.662 134.761 35.4533 134.064 34.2719 133.335C39.1064 129.949 46.227 126.554 56.5977 124.518C56.5977 124.518 56.6475 124.508 56.7335 124.49C57.6706 124.309 58.6393 124.137 59.6306 123.974C61.4187 123.689 63.2973 123.44 65.2709 123.237H72.1244Z" fill="#FDDCAB"/>
<path d="M109.742 133.326C108.556 134.06 107.343 134.757 106.107 135.422C103.205 136.988 100.186 138.36 97.0578 139.519H97.0532C90.571 141.927 83.6451 143.43 76.4294 143.864H72.1245V123.237H78.5932C80.5805 123.44 82.4772 123.694 84.2833 123.983C85.3245 124.151 86.3339 124.332 87.3162 124.527C97.6779 126.564 104.848 129.949 109.742 133.326Z" fill="#FFEAD5"/>
<path d="M71.975 138.79V144H71.9343C70.4676 144 69.0145 143.955 67.575 143.864C60.3323 143.425 53.3792 141.918 46.8698 139.492C50.1471 134.118 55.3529 125.708 56.5977 124.518C56.5977 124.518 56.6475 124.508 56.7335 124.49C57.2043 124.391 58.7841 124.069 59.6306 123.974C59.6306 123.974 54.692 138.21 71.9343 138.79H71.975Z" fill="#97F8C0"/>
<path d="M97.0532 139.519C90.5709 141.927 83.645 143.43 76.4294 143.864C74.9672 143.955 73.4915 144 72.0022 144H71.9343V138.79H71.9751C72.0249 138.785 72.0747 138.785 72.1244 138.781C88.9413 138.138 84.4145 124.377 84.2833 123.983C84.2787 123.979 84.2787 123.974 84.2787 123.974C85.2837 124.088 87.3071 124.518 87.3071 124.518L87.3162 124.527C88.5746 125.749 93.7849 134.155 97.0532 139.519Z" fill="#CAFBDA"/>
<path d="M31.2481 70.0807C32.0493 79.2652 37.8571 79.8174 37.8571 79.8174L37.9431 61.4304C37.9431 61.4304 30.4378 60.8917 31.2481 70.0807Z" fill="#FDDCAB"/>
<path d="M37.676 40.9974V79.0117C37.676 97.9736 53.0488 113.341 72.0068 113.341V40.9974H37.676Z" fill="#FDDCAB"/>
<path d="M112.607 69.8046C111.806 78.9891 105.998 79.5413 105.998 79.5413L105.912 61.1543C105.912 61.1543 113.417 60.6156 112.607 69.8046Z" fill="#FFEAD5"/>
<path d="M72.0067 40.9974V113.346C90.9692 113.346 106.337 97.9736 106.337 79.0162V40.9974H72.0067Z" fill="#FFEAD5"/>
<path d="M108.791 50.7703C108.791 52.6035 108.655 54.4142 108.393 56.175H35.8562C35.5937 54.4142 35.4579 52.6035 35.4579 50.7703C35.4579 48.2037 35.7204 45.696 36.2229 43.2742C39.6859 26.6209 54.4385 14.1003 72.1244 14.1003C89.8104 14.1003 104.568 26.6209 108.026 43.2742C108.533 45.696 108.796 48.1992 108.796 50.7703H108.791Z" fill="#CAFBDA"/>
<path d="M37.5583 50.0234C34.4348 54.473 37.676 61.4214 37.676 61.4214L59.3817 53.4002C59.3817 53.4002 40.6817 45.5738 37.5583 50.0189V50.0234Z" fill="black"/>
<path d="M108.859 43.2788H35.2769C33.3193 43.2788 31.7324 44.8656 31.7324 46.8231V52.6352C31.7324 54.5927 33.3193 56.1796 35.2769 56.1796H108.859C110.816 56.1796 112.403 54.5927 112.403 52.6352V46.8231C112.403 44.8656 110.816 43.2788 108.859 43.2788Z" fill="#97F8C0"/>
</g>
<defs>
<clipPath id="clip0_295_8574">
<rect width="144" height="144" fill="white"/>
</clipPath>
</defs>
</svg>
